# MagicaVoxel @ Ephtracy

# group
o 

# material
mtllib Tile3.mtl
usemtl palette

# normals
vn -1 0 0
vn 1 0 0
vn 0 0 1
vn 0 0 -1
vn 0 -1 0
vn 0 1 0

# texcoords
vt 0.947266 0.5
vt 0.951172 0.5

# verts
v -1.2 0 1.3
v -1.2 0 -1.1
v -1.2 0.2 1.3
v -1.2 0.2 -1.1
v 1.2 0 1.3
v 1.2 0 -1.1
v 1.2 0.2 1.3
v 1.2 0.2 -1.1
v -1.2 0 1.3
v -1.2 0.2 1.3
v 1.2 0 1.3
v 1.2 0.2 1.3
v -1.2 0 -1.1
v -1.2 0.2 -1.1
v 1.2 0 -1.1
v 1.2 0.2 -1.1
v -1.2 0 1.3
v 1.2 0 1.3
v -1.2 0 -1.1
v 1.2 0 -1.1
v -1.2 0.2 1.3
v 1.2 0.2 1.3
v -1.1 0.2 1.2
v 1.1 0.2 1.2
v -1.1 0.2 -1
v 1.1 0.2 -1
v -1.2 0.2 -1.1
v 1.2 0.2 -1.1

# faces
f 3/2/1 2/2/1 1/2/1
f 4/2/1 2/2/1 3/2/1
f 5/2/2 6/2/2 7/2/2
f 7/2/2 6/2/2 8/2/2
f 11/2/3 10/2/3 9/2/3
f 12/2/3 10/2/3 11/2/3
f 13/2/4 14/2/4 15/2/4
f 15/2/4 14/2/4 16/2/4
f 19/2/5 18/2/5 17/2/5
f 20/2/5 18/2/5 19/2/5
f 21/2/6 22/2/6 23/2/6
f 23/2/6 22/2/6 24/2/6
f 21/2/6 23/2/6 25/2/6
f 23/1/6 24/1/6 25/1/6
f 24/2/6 22/2/6 26/2/6
f 25/1/6 24/1/6 26/1/6
f 21/2/6 25/2/6 27/2/6
f 25/2/6 26/2/6 27/2/6
f 26/2/6 22/2/6 28/2/6
f 27/2/6 26/2/6 28/2/6
