# MagicaVoxel @ Ephtracy

# group
o 

# material
mtllib Wall1.mtl
usemtl palette

# normals
vn -1 0 0
vn 1 0 0
vn 0 0 1
vn 0 0 -1
vn 0 -1 0
vn 0 1 0

# texcoords
vt 0.912109 0.5
vt 0.943359 0.5

# verts
v 2.3 1.2 1.1
v 2.3 1.2 -1.3
v 2.3 1.3 1.1
v 2.3 1.3 -1.3
v 2.3 1.5 1.1
v 2.3 1.5 -1.3
v 2.3 1.6 1.1
v 2.3 1.6 -1.3
v 2.3 3.2 1.1
v 2.3 3.2 -1.3
v 2.3 3.3 1.1
v 2.3 3.3 -1.3
v 2.3 3.5 1.1
v 2.3 3.5 -1.3
v 2.3 3.6 1.1
v 2.3 3.6 -1.3
v 2.5 1.2 1.1
v 2.5 1.2 -1.3
v 2.5 3.6 1.1
v 2.5 3.6 -1.3
v 2.3 1.2 1.1
v 2.3 1.3 1.1
v 2.3 1.5 1.1
v 2.3 1.6 1.1
v 2.3 3.2 1.1
v 2.3 3.3 1.1
v 2.3 3.5 1.1
v 2.3 3.6 1.1
v 2.4 1.2 1.1
v 2.4 1.3 1.1
v 2.4 1.5 1.1
v 2.4 1.6 1.1
v 2.4 3.2 1.1
v 2.4 3.3 1.1
v 2.4 3.5 1.1
v 2.4 3.6 1.1
v 2.5 1.2 1.1
v 2.5 3.6 1.1
v 2.3 1.2 -1.3
v 2.3 1.3 -1.3
v 2.3 1.5 -1.3
v 2.3 1.6 -1.3
v 2.3 3.2 -1.3
v 2.3 3.3 -1.3
v 2.3 3.5 -1.3
v 2.3 3.6 -1.3
v 2.4 1.2 -1.3
v 2.4 1.3 -1.3
v 2.4 1.5 -1.3
v 2.4 1.6 -1.3
v 2.4 3.2 -1.3
v 2.4 3.3 -1.3
v 2.4 3.5 -1.3
v 2.4 3.6 -1.3
v 2.5 1.2 -1.3
v 2.5 3.6 -1.3
v 2.3 1.2 1.1
v 2.4 1.2 1.1
v 2.5 1.2 1.1
v 2.3 1.2 -1.3
v 2.4 1.2 -1.3
v 2.5 1.2 -1.3
v 2.3 3.6 1.1
v 2.4 3.6 1.1
v 2.5 3.6 1.1
v 2.3 3.6 -1.3
v 2.4 3.6 -1.3
v 2.5 3.6 -1.3

# faces
f 3/1/1 2/1/1 1/1/1
f 4/1/1 2/1/1 3/1/1
f 5/2/1 4/2/1 3/2/1
f 6/2/1 4/2/1 5/2/1
f 7/1/1 6/1/1 5/1/1
f 8/1/1 6/1/1 7/1/1
f 9/2/1 8/2/1 7/2/1
f 10/2/1 8/2/1 9/2/1
f 11/1/1 10/1/1 9/1/1
f 12/1/1 10/1/1 11/1/1
f 13/2/1 12/2/1 11/2/1
f 14/2/1 12/2/1 13/2/1
f 15/1/1 14/1/1 13/1/1
f 16/1/1 14/1/1 15/1/1
f 17/2/2 18/2/2 19/2/2
f 19/2/2 18/2/2 20/2/2
f 29/1/3 22/1/3 21/1/3
f 30/2/3 23/2/3 22/2/3
f 30/1/3 22/1/3 29/1/3
f 31/1/3 24/1/3 23/1/3
f 31/2/3 23/2/3 30/2/3
f 32/2/3 25/2/3 24/2/3
f 32/1/3 24/1/3 31/1/3
f 33/1/3 26/1/3 25/1/3
f 33/2/3 25/2/3 32/2/3
f 34/2/3 27/2/3 26/2/3
f 34/1/3 26/1/3 33/1/3
f 35/1/3 28/1/3 27/1/3
f 35/2/3 27/2/3 34/2/3
f 36/1/3 28/1/3 35/1/3
f 37/2/3 34/2/3 33/2/3
f 37/2/3 30/2/3 29/2/3
f 37/2/3 36/2/3 35/2/3
f 37/2/3 35/2/3 34/2/3
f 37/2/3 33/2/3 32/2/3
f 37/2/3 32/2/3 31/2/3
f 37/2/3 31/2/3 30/2/3
f 38/2/3 36/2/3 37/2/3
f 39/1/4 40/1/4 47/1/4
f 40/2/4 41/2/4 48/2/4
f 47/1/4 40/1/4 48/1/4
f 41/1/4 42/1/4 49/1/4
f 48/2/4 41/2/4 49/2/4
f 42/2/4 43/2/4 50/2/4
f 49/1/4 42/1/4 50/1/4
f 43/1/4 44/1/4 51/1/4
f 50/2/4 43/2/4 51/2/4
f 44/2/4 45/2/4 52/2/4
f 51/1/4 44/1/4 52/1/4
f 45/1/4 46/1/4 53/1/4
f 52/2/4 45/2/4 53/2/4
f 53/1/4 46/1/4 54/1/4
f 51/2/4 52/2/4 55/2/4
f 47/2/4 48/2/4 55/2/4
f 53/2/4 54/2/4 55/2/4
f 52/2/4 53/2/4 55/2/4
f 50/2/4 51/2/4 55/2/4
f 49/2/4 50/2/4 55/2/4
f 48/2/4 49/2/4 55/2/4
f 55/2/4 54/2/4 56/2/4
f 60/1/5 58/1/5 57/1/5
f 61/2/5 59/2/5 58/2/5
f 61/1/5 58/1/5 60/1/5
f 62/2/5 59/2/5 61/2/5
f 63/1/6 64/1/6 66/1/6
f 64/2/6 65/2/6 67/2/6
f 66/1/6 64/1/6 67/1/6
f 67/2/6 65/2/6 68/2/6
